<svg xmlns="http://www.w3.org/2000/svg" viewBox="0 0 512 512" role="img" aria-label="금색 방울 목걸이를 한 턱시도 고양이"><rect width="512" height="512" rx="96" fill="#17120f"/><circle cx="256" cy="282" r="156" fill="#24201d"/><path d="M143 198 112 88l97 66zM369 198l31-110-97 66z" fill="#1b1816"/><path d="M190 197q66 47 132 0v122q-68 43-132 0z" fill="#f4eee1"/><ellipse cx="203" cy="276" rx="20" ry="15" fill="#f4eee1"/><ellipse cx="309" cy="276" rx="20" ry="15" fill="#f4eee1"/><path d="M235 326q21 17 42 0" fill="none" stroke="#f4eee1" stroke-width="11" stroke-linecap="round"/><path d="M256 299l-18 18h36z" fill="#3f3832"/><path d="M168 372q88 34 176 0" fill="none" stroke="#c69b42" stroke-width="16" stroke-linecap="round"/><circle cx="256" cy="382" r="22" fill="#d7ad4d"/><path d="M247 392h18" stroke="#765b25" stroke-width="7" stroke-linecap="round"/></svg>