<svg xmlns="http://www.w3.org/2000/svg" viewBox="0 0 512 512" role="img" aria-label="초록 나비넥타이를 한 주황 태비 고양이"><rect width="512" height="512" rx="96" fill="#17120f"/><circle cx="256" cy="282" r="156" fill="#d88a48"/><polygon points="143,198 112,88 209,154" fill="#a96332"/><polygon points="369,198 400,88 303,154" fill="#a96332"/><path d="M214 152 L256 222 L298 152" fill="none" stroke="#a96332" stroke-width="18" stroke-linecap="round"/><path d="M190 215 H322" stroke="#a96332" stroke-width="14" stroke-linecap="round"/><ellipse cx="203" cy="276" rx="24" ry="17" fill="#2c211b"/><ellipse cx="309" cy="276" rx="24" ry="17" fill="#2c211b"/><path d="M235 326 Q256 343 277 326" fill="none" stroke="#794b32" stroke-width="12" stroke-linecap="round"/><polygon points="256,299 238,317 274,317" fill="#955f45"/><polygon points="165,340 236,296 236,384" fill="#4d8b61"/><polygon points="347,340 276,296 276,384" fill="#4d8b61"/><circle cx="256" cy="340" r="18" fill="#356645"/></svg>