<svg xmlns="http://www.w3.org/2000/svg" viewBox="0 0 512 512" role="img" aria-label="빨간 나비넥타이를 한 샴 고양이"><rect width="512" height="512" rx="96" fill="#17120f"/><circle cx="256" cy="282" r="156" fill="#d9c2a3"/><path d="M143 198 112 88l97 66zM369 198l31-110-97 66z" fill="#5f463a"/><ellipse cx="203" cy="276" rx="26" ry="18" fill="#2f241f"/><ellipse cx="309" cy="276" rx="26" ry="18" fill="#2f241f"/><path d="M235 326q21 17 42 0" fill="none" stroke="#5f463a" stroke-width="12" stroke-linecap="round"/><path d="M256 299l-18 18h36z" fill="#8b6858"/><path d="M214 388 164 350q-13-10 0-20l50-38q16-12 26 7v82q-10 19-26 7zM298 388l50-38q13-10 0-20l-50-38q-16-12-26 7v82q10 19 26 7z" fill="#b9413d"/><circle cx="256" cy="340" r="18" fill="#8f302d"/></svg>