<svg xmlns="http://www.w3.org/2000/svg" viewBox="0 0 512 512" role="img" aria-label="삼색 고양이"><rect width="512" height="512" rx="96" fill="#17120f"/><circle cx="256" cy="282" r="156" fill="#f1dfc6"/><polygon points="143,198 112,88 209,154" fill="#c66f43"/><polygon points="369,198 400,88 303,154" fill="#37312d"/><circle cx="190" cy="205" r="58" fill="#c66f43"/><circle cx="322" cy="210" r="58" fill="#37312d"/><ellipse cx="203" cy="276" rx="24" ry="17" fill="#2c2520"/><ellipse cx="309" cy="276" rx="24" ry="17" fill="#2c2520"/><path d="M235 326 Q256 343 277 326" fill="none" stroke="#7b5c4e" stroke-width="12" stroke-linecap="round"/><polygon points="256,299 238,317 274,317" fill="#b68472"/><circle cx="340" cy="164" r="15" fill="#e7b943"/><circle cx="340" cy="140" r="17" fill="#fff7dc"/><circle cx="363" cy="157" r="17" fill="#fff7dc"/><circle cx="354" cy="184" r="17" fill="#fff7dc"/><circle cx="326" cy="184" r="17" fill="#fff7dc"/><circle cx="317" cy="157" r="17" fill="#fff7dc"/></svg>