<svg xmlns="http://www.w3.org/2000/svg" viewBox="0 0 160 160" role="img" aria-labelledby="title"><title id="title">겹친 두 개의 하트</title><g fill="none" stroke="#1f1f1f" stroke-width="7" stroke-linecap="round" stroke-linejoin="round"><path fill="#ef3340" d="M70 126 27 84C9 66 14 35 40 29c17-4 29 4 38 17 9-13 22-21 39-17 26 6 31 37 13 55l-28 27"/><path fill="#ef3340" d="M109 137 77 105c-13-13-9-35 9-39 12-3 21 3 27 12 7-9 16-15 28-12 18 4 22 26 9 39l-32 32c-3 3-6 3-9 0Z"/></g><g stroke="#ffffff" stroke-width="3" opacity=".72"><path d="M34 47 64 37M27 61l42-14M27 76l48-16M39 88l37-13M89 86l25-8M86 99l40-13M96 111l37-12"/></g></svg>