<svg xmlns="http://www.w3.org/2000/svg" viewBox="0 0 160 160" role="img" aria-labelledby="title"><title id="title">초록색 음양 상징</title><circle cx="80" cy="80" r="62" fill="#ffffff" stroke="#1f1f1f" stroke-width="7"/><path d="M80 18c34 0 62 28 62 62s-28 62-62 62c17-10 27-28 27-48 0-19-10-36-27-46-16-10-26-20-26-31 0 0 9 1 26 1Z" fill="#34a853" stroke="#1f1f1f" stroke-width="4"/><circle cx="81" cy="49" r="10" fill="#34a853" stroke="#1f1f1f" stroke-width="5"/><circle cx="78" cy="112" r="10" fill="#ffffff" stroke="#1f1f1f" stroke-width="5"/><g stroke="#ffffff" stroke-width="3" opacity=".72"><path d="M93 27l24 11M88 39l35 15M102 63l27 11M102 79l25 10M96 95l20 8"/></g></svg>