<svg xmlns="http://www.w3.org/2000/svg" viewBox="0 0 160 160" role="img" aria-labelledby="title"><title id="title">겹친 두 개의 말풍선</title><g stroke="#1f1f1f" stroke-width="7" stroke-linecap="round" stroke-linejoin="round"><path fill="#ffc928" d="M20 34h84c15 0 27 12 27 27v24c0 15-12 27-27 27H62l-25 19 4-19H20C8 112 0 102 0 90V56c0-12 8-22 20-22Z"/><path fill="#ffffff" d="M70 65h69c12 0 21 9 21 21v28c0 12-9 21-21 21h-17l4 15-22-15H70c-12 0-21-9-21-21V86c0-12 9-21 21-21Z"/></g><g fill="#1f1f1f"><circle cx="39" cy="73" r="5"/><circle cx="61" cy="73" r="5"/><circle cx="83" cy="73" r="5"/><circle cx="82" cy="100" r="5"/><circle cx="104" cy="100" r="5"/><circle cx="126" cy="100" r="5"/></g><g stroke="#ffffff" stroke-width="3" opacity=".7"><path d="M22 48h46M19 60h59M17 84h49"/></g></svg>